<svg xmlns="http://www.w3.org/2000/svg"  viewBox="0 0 64 64" width="64px" height="64px" baseProfile="basic"><linearGradient id="VAYITdxsFC8VT8tqE7x1qa" x1="32" x2="32" y1="55" y2="9" gradientUnits="userSpaceOnUse"><stop offset="0" stop-color="#c822ff"/><stop offset="1" stop-color="#1a6dff"/></linearGradient><path fill="url(#VAYITdxsFC8VT8tqE7x1qa)" d="M47.431,55H16.569C12.396,55,9,51.604,9,47.431V16.569C9,12.396,12.396,9,16.569,9h30.861 C51.604,9,55,12.396,55,16.569v30.861C55,51.604,51.604,55,47.431,55z M16.569,11C13.499,11,11,13.498,11,16.569v30.861 C11,50.502,13.499,53,16.569,53h30.861C50.502,53,53,50.502,53,47.431V16.569C53,13.498,50.502,11,47.431,11H16.569z"/><linearGradient id="VAYITdxsFC8VT8tqE7x1qb" x1="32" x2="32" y1="13" y2="51" gradientUnits="userSpaceOnUse"><stop offset="0" stop-color="#70c6ff"/><stop offset="1" stop-color="#e6abff"/></linearGradient><path fill="url(#VAYITdxsFC8VT8tqE7x1qb)" d="M47.032,13H16.968	C14.777,13,13,14.777,13,16.968v30.064C13,49.223,14.777,51,16.968,51h30.064C49.223,51,51,49.223,51,47.032V16.968	C51,14.777,49.223,13,47.032,13z M38,41H26c-4.971,0-9-4.029-9-9s4.029-9,9-9h12c4.971,0,9,4.029,9,9S42.971,41,38,41z"/><path fill="#a9b9ff" d="M41,32c0,1.657-1.343,3-3,3H26c-1.657,0-3-1.343-3-3s1.343-3,3-3h12C39.657,29,41,30.343,41,32z"/></svg>