<svg xmlns="http://www.w3.org/2000/svg"  viewBox="0 0 64 64" width="64px" height="64px"><linearGradient id="SB10I8Xl0s2lkfJeh33pHa" x1="32" x2="32" y1="18.304" y2="25.407" gradientUnits="userSpaceOnUse"><stop offset="0" stop-color="#6dc7ff"/><stop offset="1" stop-color="#e6abff"/></linearGradient><path fill="url(#SB10I8Xl0s2lkfJeh33pHa)" d="M32,25.871c-2.065-2.215-3-4.196-3-5.255C29,19.173,30.346,18,32,18c1.654,0,3,1.173,3,2.615	C35,21.674,34.065,23.655,32,25.871z"/><linearGradient id="SB10I8Xl0s2lkfJeh33pHb" x1="22.706" x2="22.706" y1="33.304" y2="41.025" gradientUnits="userSpaceOnUse"><stop offset="0" stop-color="#6dc7ff"/><stop offset="1" stop-color="#e6abff"/></linearGradient><path fill="url(#SB10I8Xl0s2lkfJeh33pHb)" d="M22.117,41c-1.066,0-2.09-0.618-2.67-1.614c-0.433-0.741-0.561-1.612-0.353-2.39	c0.176-0.657,0.579-1.194,1.136-1.513c0.545-0.312,1.458-0.483,2.57-0.483c1.063,0,2.32,0.16,3.614,0.455	c-0.898,2.899-2.163,4.7-3.092,5.229C22.957,40.894,22.552,41,22.117,41z"/><linearGradient id="SB10I8Xl0s2lkfJeh33pHc" x1="32" x2="32" y1="2.087" y2="61.435" gradientUnits="userSpaceOnUse"><stop offset="0" stop-color="#1a6dff"/><stop offset="1" stop-color="#c822ff"/></linearGradient><path fill="url(#SB10I8Xl0s2lkfJeh33pHc)" d="M32,6C17.663,6,6,17.664,6,32s11.663,26,26,26s26-11.664,26-26S46.337,6,32,6z M32,56	C18.767,56,8,45.233,8,32S18.767,8,32,8s24,10.767,24,24S45.233,56,32,56z M39,20.615c0-3.646-3.14-6.614-7-6.615	c-3.859,0-7,2.968-7,6.615c0,3.546,3.284,7.568,6.356,10.149c0.187,0.156,0.415,0.234,0.644,0.234s0.457-0.078,0.644-0.234	C35.717,28.183,39,24.161,39,20.615z M32,28.672c-2.436-2.203-5-5.428-5-8.057C27,18.07,29.243,16,32,16	c2.757,0.001,5,2.071,5,4.615C37,23.244,34.436,26.469,32,28.672z M30.339,32.443c-3.814-1.372-8.991-2.205-12.096-0.433	c-1.488,0.852-2.559,2.255-3.012,3.951c-0.482,1.8-0.205,3.783,0.76,5.439c0,0,0,0,0,0c1.34,2.296,3.729,3.598,6.129,3.598	c1.094,0,2.189-0.271,3.188-0.842c3.104-1.773,4.968-6.637,5.677-10.597C31.07,33.081,30.797,32.608,30.339,32.443z M24.315,42.421	c-2.24,1.281-5.198,0.371-6.596-2.028v0c-0.699-1.199-0.902-2.626-0.557-3.915c0.314-1.177,1.052-2.146,2.073-2.731	c2.311-1.319,6.445-0.709,9.612,0.303C28.149,37.266,26.619,41.105,24.315,42.421z M48.769,35.961	c-0.454-1.695-1.524-3.098-3.014-3.949c-3.103-1.773-8.282-0.939-12.094,0.433c-0.458,0.165-0.731,0.637-0.646,1.117	c0.708,3.96,2.57,8.823,5.676,10.597c0.998,0.57,2.093,0.841,3.187,0.841c2.399,0,4.791-1.303,6.13-3.598	C48.974,39.744,49.251,37.762,48.769,35.961z M46.279,40.393c-1.399,2.398-4.358,3.307-6.596,2.029	c-2.304-1.316-3.834-5.156-4.532-8.371c3.167-1.012,7.301-1.623,9.611-0.303c1.022,0.584,1.759,1.554,2.074,2.73	C47.182,37.768,46.979,39.194,46.279,40.393z"/><linearGradient id="SB10I8Xl0s2lkfJeh33pHd" x1="41.293" x2="41.293" y1="33.304" y2="41.025" gradientUnits="userSpaceOnUse"><stop offset="0" stop-color="#6dc7ff"/><stop offset="1" stop-color="#e6abff"/></linearGradient><path fill="url(#SB10I8Xl0s2lkfJeh33pHd)" d="M41.882,41c-0.435,0-0.841-0.106-1.206-0.315c-0.929-0.53-2.193-2.332-3.092-5.23	C38.879,35.16,40.135,35,41.198,35c1.112,0,2.026,0.172,2.572,0.484c0.556,0.317,0.958,0.854,1.135,1.512	c0.208,0.776,0.079,1.647-0.354,2.389C43.971,40.381,42.948,41,41.882,41z"/></svg>